<?xml version="1.0" encoding="UTF-8" standalone="no"?>
<!-- Created with Inkscape (http://www.inkscape.org/) -->

<svg
   width="105.83333mm"
   height="52.916664mm"
   viewBox="0 0 105.83333 52.916664"
   version="1.1"
   id="svg1"
   xml:space="preserve"
   xmlns="http://www.w3.org/2000/svg"
   xmlns:svg="http://www.w3.org/2000/svg"><defs
     id="defs1" /><g
     id="layer1"
     transform="translate(-29.633334,-73.025)"><g
       id="g1"
       transform="matrix(0.26458333,0,0,0.26458333,29.633334,73.025)"><rect
         fill="#808080"
         height="200"
         width="400"
         x="0"
         y="0"
         id="rect1"
         style="stop-color:#000000;fill:none;fill-rule:evenodd;stroke-width:5.53700817;stroke-linejoin:bevel;stroke:none" /><circle
         cx="70"
         cy="100"
         fill="#27c1e6"
         opacity="0.8"
         r="30"
         stroke="#000000"
         stroke-width="4"
         id="circle1" /><circle
         cx="100"
         cy="100"
         fill="#27c1e6"
         opacity="0.8"
         r="30"
         stroke="#000000"
         stroke-width="4"
         id="circle2" /><g
         id="g139"><circle
           cx="70"
           cy="100"
           fill="#157ba0"
           opacity="1"
           r="30"
           id="circle3" /><circle
           cx="100"
           cy="100"
           fill="#1a99c2"
           opacity="0.9"
           r="30"
           id="circle4" /><text
           fill="#ffffff"
           font-family="Arial"
           font-size="46px"
           font-weight="900"
           stroke="#000000"
           stroke-opacity="1"
           stroke-width="1.5"
           x="140"
           y="118"
           id="text4"
           style="fill:#000000;fill-opacity:1">KRIT CZ</text></g></g><path
       style="fill:none;fill-rule:evenodd;stroke:none;stroke-width:3.07258;stroke-linejoin:bevel"
       d="M 0.27745864,99.88511 V 0.27745864 H 200.04768 399.8179 V 99.88511 199.49276 H 200.04768 0.27745864 Z m 79.96289736,30.5375 c 2.258891,-0.79925 4.356783,-1.45319 4.661988,-1.45319 0.305204,0 2.372382,0.64364 4.593727,1.4303 20.550659,7.27775 42.832429,-8.59619 42.832429,-30.51461 0,-14.185078 -10.31923,-27.457506 -24.14865,-31.059613 -6.23529,-1.624082 -14.984772,-0.966638 -21.000292,1.577985 -2.108209,0.891791 -2.253491,0.876614 -5.826632,-0.608661 -3.374812,-1.402842 -4.256737,-1.523903 -11.15589,-1.5314 -6.418989,-0.007 -7.962614,0.169638 -10.783241,1.233726 -7.259824,2.738788 -13.183058,7.631655 -17.125398,14.146378 -3.278728,5.418096 -4.001453,8.465147 -3.983943,16.796505 0.01399,6.65671 0.138405,7.51396 1.610732,11.09834 3.283959,7.99481 8.284428,13.52736 15.538541,17.1919 7.789757,3.93514 16.72392,4.54513 24.786629,1.69234 z M 305.96923,118.72098 c 4.69165,-1.39327 8.41878,-5.56384 9.68726,-10.8398 0.33606,-1.39773 0.19968,-1.48062 -4.92598,-2.99428 -2.89938,-0.85621 -5.34703,-1.45789 -5.43923,-1.33706 -0.0922,0.12083 -0.52883,1.21854 -0.97029,2.43936 -1.51502,4.18965 -6.51089,5.1571 -9.05242,1.753 -1.5127,-2.02609 -1.62975,-9.188036 -0.19341,-11.834021 2.00528,-3.694079 6.99797,-3.557081 8.74205,0.239885 0.6202,1.350208 1.11528,1.751081 1.94221,1.572647 11.28826,-2.435798 10.80167,-2.01981 8.02534,-6.860936 -3.15689,-5.504735 -8.42025,-7.787665 -16.54181,-7.174864 -7.51467,0.567014 -12.73593,4.470608 -14.61744,10.928485 -1.14825,3.941173 -0.88376,11.970244 0.49581,15.050684 1.33752,2.98659 4.68012,6.87028 6.90195,8.01923 3.80273,1.96647 11.19787,2.4477 15.94596,1.03767 z m -151.42477,-4.01794 c 0,-4.27415 0.0255,-4.35159 2.09611,-6.37351 l 2.0961,-2.04679 3.17257,6.3735 3.17256,6.37352 h 7.52718 c 4.13995,0 7.42427,-0.18729 7.2985,-0.41619 -0.12577,-0.2289 -3.02102,-4.9918 -6.43386,-10.58423 l -6.20518,-10.168035 2.75102,-3.149977 c 1.51306,-1.732485 4.2687,-4.640435 6.12365,-6.462112 1.85495,-1.821671 3.37263,-3.507232 3.37263,-3.745691 0,-0.238454 -3.57617,-0.433557 -7.94704,-0.433557 h -7.94704 l -4.5386,5.322766 -4.5386,5.322767 v -5.322767 -5.322766 h -6.10409 -6.10409 v 17.479892 17.4799 h 6.10409 6.10409 z m 38.28929,-2.33229 c 0,-9.32493 0.77412,-9.14199 6.43424,1.52056 l 2.7219,5.12751 6.79774,0.005 c 3.73875,0.003 6.79773,-0.12393 6.79773,-0.28207 0,-0.95019 -5.80549,-11.61904 -7.16527,-13.16774 l -1.63771,-1.86525 1.90093,-1.51679 c 2.56872,-2.04963 3.6597,-4.361484 3.69079,-7.821015 0.0305,-3.391688 -1.29907,-6.552641 -3.37743,-8.029742 -2.63304,-1.87132 -5.60973,-2.265445 -17.13402,-2.268619 l -11.23708,-0.0031 v 17.479896 17.4799 h 6.10409 6.10409 z m 36.06963,-10.82089 V 84.069968 h -6.10409 -6.10409 v 17.479892 17.4799 h 6.10409 6.10409 z m 25.52619,4.99426 V 94.058479 h 5.27172 5.27171 v -4.994256 -4.994255 h -16.37006 -16.37006 v 4.994255 4.994256 h 4.99426 4.99425 v 12.485641 12.48564 h 6.10409 6.10409 z m 94.89086,8.0463 v -4.43934 h -8.92989 -8.92988 l 8.63984,-9.01741 8.63984,-9.017402 0.0126,-4.02315 0.0126,-4.02315 h -15.53768 -15.53769 v 4.423678 4.423679 l 7.54051,0.154389 7.54051,0.154389 -8.37288,8.719247 -8.37289,8.71926 v 4.18257 4.18258 h 16.64752 16.64752 z"
       id="path6"
       transform="matrix(0.26458333,0,0,0.26458333,29.633334,73.025)" /></g></svg>
